<svg id="Слой_1" data-name="Слой 1" xmlns="http://www.w3.org/2000/svg" xmlns:xlink="http://www.w3.org/1999/xlink" viewBox="0 0 302.32 247.21"><defs><style>.cls-1{fill:url(#Безымянный_градиент_98);}.cls-2{fill:url(#Безымянный_градиент_297);}.cls-3{fill:url(#Безымянный_градиент_93);}.cls-4{fill:#fff;}</style><linearGradient id="Безымянный_градиент_98" x1="50.86" y1="85.85" x2="163.33" y2="85.85" gradientTransform="translate(36.12 185.8) rotate(-109.43)" gradientUnits="userSpaceOnUse"><stop offset="0" stop-color="#3fb1ff"/><stop offset="1" stop-color="#ffaade"/></linearGradient><linearGradient id="Безымянный_градиент_297" x1="-80.05" y1="165.95" x2="-32.2" y2="165.95" gradientTransform="translate(376.41 142.08) rotate(53.42)" gradientUnits="userSpaceOnUse"><stop offset="0" stop-color="#283593"/><stop offset="0.99" stop-color="#7d8bfe"/></linearGradient><linearGradient id="Безымянный_градиент_93" x1="47.77" y1="164.57" x2="350.09" y2="164.57" gradientUnits="userSpaceOnUse"><stop offset="0" stop-color="#3fb1ff"/><stop offset="1" stop-color="#d494ff"/></linearGradient></defs><title>Logo3</title><text x="-47.77" y="-29.7"/><circle class="cls-1" cx="81.46" cy="56.25" r="56.23"/><circle class="cls-2" cx="209.7" cy="195.9" r="23.93"/><path class="cls-3" d="M350,149.14A61.39,61.39,0,0,0,292.55,90.9a62.77,62.77,0,0,0-10.29.25,50.7,50.7,0,0,1-39.41-12.48,103.37,103.37,0,0,0-64.4-26.33C119.59,49.65,69.81,97.15,69.83,156.06A103.61,103.61,0,0,0,73,181.38a6.06,6.06,0,0,1-2.83,6.73,45.2,45.2,0,1,0,58.62,66.61,6.07,6.07,0,0,1,7-2l.27.1a124,124,0,0,1,28.07,15.71,43.73,43.73,0,0,0,63.57-13.45,131.86,131.86,0,0,1,20-26.26l.45-.46a51.26,51.26,0,0,1,38.7-15.19c.69,0,1.39,0,2.08,0A61.22,61.22,0,0,0,350,149.14Z" transform="translate(-47.77 -29.7)"/><path class="cls-4" d="M165.78,127.33v41.22c0,7.29-3.78,11.89-10.76,12.86a15.56,15.56,0,0,1-11.54-2.5c-6-4.26-6-11.86-.06-16.13a15.43,15.43,0,0,1,12.87-2.33c.45.11.9.18,1.61.32V117.45c0-2.91.61-3.7,3.3-4.26l15.13-3.2c2.29-.48,3,.06,3,2.43q0,4.48,0,9c0,2.31-.8,3.21-3,3.68Z" transform="translate(-47.77 -29.7)"/><path class="cls-4" d="M188.59,186.83V143.46c0-3,.39-3.56,3.29-4.19q7.74-1.68,15.51-3.28c1.86-.38,2.47.13,2.49,2.1.05,3.27,0,6.54,0,9.81a2.84,2.84,0,0,1-2.57,3.13c-2.95.6-5.87,1.43-8.84,1.87-1.79.26-2.06,1.11-2.06,2.75.06,12.8,0,25.6,0,38.4,0,8.88-5.9,14.45-14.47,13.62a15.06,15.06,0,0,1-8.86-3.5c-4.71-4.14-4.74-10.53,0-14.62,3.88-3.34,8.42-3.94,13.25-3.14C187,186.51,187.66,186.65,188.59,186.83Z" transform="translate(-47.77 -29.7)"/><path class="cls-4" d="M236.72,137.77V179c0,7.29-3.75,11.84-10.78,12.83a15.21,15.21,0,0,1-11.84-2.75c-5.56-4.23-5.61-11.44,0-15.64a15.3,15.3,0,0,1,13.38-2.5c.37.09.76.12,1.47.22V128.1c0-3.43.38-3.86,3.64-4.54,4.91-1,9.82-2.1,14.73-3.15,2.31-.49,2.93,0,2.94,2.46q0,4.48,0,9c0,2.4-.67,3.2-2.94,3.69Z" transform="translate(-47.77 -29.7)"/></svg>