<svg class="bgWave" version="1.1" xmlns="http://www.w3.org/2000/svg"
								xmlns:xlink="http://www.w3.org/1999/xlink" x="0px" y="0px" viewBox="0 0 399.92 253.75"
								style="enable-background:new 0 0 399.92 253.75;" xml:space="preserve">
								<style type="text/css">
									.st0 {
										fill: #303030;
									}
								</style>
								<defs>
								</defs>
								<path class="st0" d="M399.92,10.57c-25.09-0.03-37.83-2.65-50.16-5.19c-12.24-2.52-24.89-5.13-49.79-5.15
c-24.89-0.03-37.56,2.55-49.8,5.04c-12.33,2.51-25.09,5.11-50.17,5.08c-25.09-0.03-37.84-2.65-50.16-5.19
C137.6,2.63,124.94,0.03,100.05,0c-24.9-0.03-37.56,2.55-49.8,5.04c-12.33,2.51-25.09,5.11-50.17,5.08L0,70.7v183.05h399.92V70.7
h-0.07L399.92,10.57z" />
							</svg>